USFL
nRows=150
nColumns=2
inDegrees=yes
endheader
time	soleus_r	
1.6249	 38.079597	
1.68739	 38.086066	
1.74989	 37.725207	
1.81238	 37.792775	
1.87488	 37.853760	
1.93738	 37.802232	
1.99987	 37.790366	
2.06237	 37.769906	
2.12486	 37.937497	
2.18736	 38.191606	
2.24986	 38.067033	
2.31235	 38.037615	
2.37485	 38.150627	
2.43734	 38.169243	
2.49984	 37.910023	
2.56234	 38.084457	
2.62483	 38.120790	
2.68733	 37.258130	
2.74982	 35.994475	
2.81232	 36.031200	
2.87482	 36.023705	
2.93731	 36.483172	
2.99981	 36.479654	
3.0623	 37.503581	
3.1248	 35.638790	
3.1873	 35.670211	
3.24979	 36.257609	
3.31229	 35.766900	
3.37478	 35.923680	
3.43728	 37.057556	
3.49978	 36.882300	
3.56227	 36.868555	
3.62477	 36.401521	
3.68726	 35.888785	
3.74976	 30.031945	
3.81226	 29.426234	
3.87475	 26.727008	
3.93725	 26.778137	
3.99974	 27.460513	
4.06224	 27.391600	
4.12474	 27.312522	
4.18723	 26.973629	
4.24973	 23.619456	
4.31222	 23.655217	
4.37472	 23.611668	
4.43722	 23.589526	
4.49971	 21.471082	
4.56221	 21.426706	
4.6247	 21.573980	
4.6872	 21.499056	
4.7497	 22.390255	
4.81219	 22.517600	
4.87469	 22.616933	
4.93718	 20.867843	
4.99968	 20.659391	
5.06218	 20.562653	
5.12467	 21.106151	
5.18717	 21.379712	
5.24966	 21.372117	
5.31216	 21.588869	
5.37466	 21.724672	
5.43715	 21.677581	
5.49965	 21.689135	
5.56214	 21.614781	
5.62464	 21.614922	
5.68714	 21.574641	
5.74963	 21.286187	
5.81213	 21.281799	
5.87462	 21.493780	
5.93712	 21.164993	
5.99962	 21.093697	
6.06211	 21.235496	
6.12461	 21.031243	
6.1871	 20.849024	
6.2496	 20.059704	
6.3121	 19.645696	
6.37459	 19.964420	
6.43709	 19.784327	
6.49958	 19.527111	
6.56208	 19.548280	
6.62458	 19.626698	
6.68707	 19.526183	
6.74957	 19.305377	
6.81206	 18.913909	
6.87456	 18.944767	
6.93706	 19.028625	
6.99955	 18.817282	
7.06205	 18.935339	
7.12454	 18.962059	
7.18704	 20.318504	
7.24954	 20.224415	
7.31203	 20.175728	
7.37453	 19.786633	
7.43702	 19.890558	
7.49952	 20.011303	
7.56202	 19.833509	
7.62451	 19.515554	
7.68701	 20.068290	
7.7495	 22.813226	
7.812	 21.683911	
7.8745	 21.895809	
7.93699	 22.314967	
7.99949	 22.339626	
8.06198	 21.873768	
8.12448	 21.886217	
8.18698	 21.501478	
8.24947	 21.294481	
8.31197	 23.500845	
8.37446	 23.300550	
8.43696	 23.487293	
8.49946	 22.948859	
8.56195	 22.651274	
8.62445	 23.268987	
8.68694	 21.897518	
8.74944	 21.335411	
8.81194	 21.271388	
8.87443	 20.400636	
8.93693	 22.807458	
8.99942	 22.894354	
9.06192	 24.837908	
9.12442	 26.302074	
9.18691	 26.112578	
9.24941	 25.622296	
9.3119	 26.135185	
9.3744	 26.298655	
9.4369	 26.670112	
9.49939	 26.231683	
9.56189	 26.340804	
9.62438	 25.511872	
9.68688	 24.344034	
9.74938	 24.827051	
9.81187	 23.631899	
9.87437	 22.544711	
9.93686	 23.279612	
9.99936	 23.070872	
10.0619	 23.562049	
10.1244	 23.622938	
10.1868	 23.571615	
10.2493	 24.695402	
10.3118	 24.695402	
10.3743	 25.941296	
10.4368	 28.525068	
10.4993	 26.860381	
10.5618	 28.501859	
10.6243	 28.763901	
10.6868	 28.763901	
10.7493	 33.577838	
10.8118	 31.982400	
10.8743	 32.095378	
10.9368	 32.839982	
